<?xml version="1.0" encoding="UTF-8"?>
<svg xmlns="http://www.w3.org/2000/svg" xmlns:xlink="http://www.w3.org/1999/xlink" width="32px" height="32px" viewBox="0 0 32 32" version="1.1">
<g id="surface1">
<path style=" stroke:none;fill-rule:nonzero;fill:rgb(0%,0%,0%);fill-opacity:1;" d="M 0.484375 6.425781 C 0.121094 7.394531 0 12.121094 0.242188 17.089844 L 0.605469 26.0625 L 30.910156 26.0625 L 30.910156 5.453125 L 16 5.089844 C 4.242188 4.847656 0.96875 5.089844 0.484375 6.425781 Z M 22.183594 12.96875 C 28.363281 9.695312 28.363281 9.695312 24.847656 12.605469 L 21.332031 15.636719 L 24.242188 18.910156 L 27.273438 22.304688 L 23.273438 19.515625 C 20.121094 17.332031 18.910156 17.089844 17.574219 18.183594 C 16.121094 19.394531 15.394531 19.394531 13.9375 18.183594 C 12.605469 17.089844 11.394531 17.332031 8.242188 19.515625 L 4.242188 22.304688 L 10.304688 15.515625 L 6.667969 12.484375 C 3.152344 9.574219 3.273438 9.574219 9.453125 12.847656 L 15.878906 16.363281 Z M 22.183594 12.96875 "/>
</g>
</svg>
