<?xml version="1.0" encoding="UTF-8"?>
<svg xmlns="http://www.w3.org/2000/svg" xmlns:xlink="http://www.w3.org/1999/xlink" width="32px" height="32px" viewBox="0 0 32 32" version="1.1">
<g id="surface1">
<path style=" stroke:none;fill-rule:nonzero;fill:rgb(0%,0%,0%);fill-opacity:1;" d="M 11.386719 29.976562 C 11.839844 29.777344 12.160156 29.328125 12.160156 28.800781 L 12.160156 25.34375 C 12.160156 25.21875 12.171875 25.085938 12.1875 24.953125 C 12.175781 24.957031 12.167969 24.957031 12.160156 24.960938 C 12.160156 24.960938 10.238281 24.960938 9.855469 24.960938 C 8.894531 24.960938 8.0625 24.574219 7.679688 23.808594 C 7.230469 22.976562 7.039062 21.566406 5.886719 20.800781 C 5.695312 20.671875 5.824219 20.480469 6.207031 20.480469 C 6.59375 20.542969 7.425781 21.054688 7.9375 21.761719 C 8.511719 22.464844 9.089844 23.039062 10.113281 23.039062 C 11.703125 23.039062 12.558594 22.960938 13.070312 22.683594 C 13.667969 21.796875 14.496094 21.121094 15.359375 21.121094 L 15.359375 21.105469 C 11.734375 20.988281 9.414062 19.78125 8.335938 17.921875 C 5.992188 17.945312 3.949219 18.179688 2.78125 18.371094 C 2.746094 18.164062 2.714844 17.953125 2.6875 17.742188 C 3.835938 17.550781 5.785156 17.328125 8.027344 17.285156 C 7.957031 17.105469 7.894531 16.925781 7.839844 16.742188 C 5.59375 16.625 3.65625 16.714844 2.601562 16.800781 C 2.589844 16.589844 2.570312 16.378906 2.566406 16.164062 C 3.625 16.078125 5.511719 15.992188 7.699219 16.09375 C 7.648438 15.773438 7.617188 15.445312 7.617188 15.105469 C 7.617188 14.015625 8 12.863281 8.703125 11.90625 C 8.382812 10.816406 7.9375 8.511719 8.832031 7.679688 C 10.5625 7.679688 11.777344 8.511719 12.351562 9.023438 C 13.441406 8.574219 14.65625 8.320312 16 8.320312 C 17.34375 8.320312 18.558594 8.574219 19.585938 9.023438 C 20.160156 8.511719 21.375 7.679688 23.105469 7.679688 C 24.0625 8.574219 23.550781 10.878906 23.230469 11.902344 C 23.9375 12.863281 24.320312 13.953125 24.257812 15.105469 C 24.257812 15.414062 24.226562 15.710938 24.1875 16.003906 C 26.425781 15.894531 28.363281 15.984375 29.4375 16.070312 C 29.433594 16.285156 29.414062 16.496094 29.402344 16.710938 C 28.335938 16.621094 26.347656 16.53125 24.054688 16.652344 C 23.996094 16.867188 23.925781 17.078125 23.847656 17.28125 C 26.113281 17.308594 28.113281 17.53125 29.316406 17.722656 C 29.289062 17.933594 29.257812 18.144531 29.21875 18.351562 C 27.996094 18.15625 25.910156 17.929688 23.539062 17.917969 C 22.472656 19.757812 20.195312 20.960938 16.640625 21.101562 L 16.640625 21.121094 C 18.304688 21.121094 19.839844 23.617188 19.839844 25.34375 L 19.839844 28.800781 C 19.839844 29.328125 20.160156 29.777344 20.613281 29.976562 C 26.476562 28.035156 30.71875 22.503906 30.71875 16 C 30.71875 7.882812 24.117188 1.28125 16 1.28125 C 7.882812 1.28125 1.28125 7.882812 1.28125 16 C 1.28125 22.503906 5.523438 28.035156 11.386719 29.976562 Z M 11.386719 29.976562 "/>
</g>
</svg>
