<?xml version="1.0" encoding="UTF-8"?>
<svg xmlns="http://www.w3.org/2000/svg" xmlns:xlink="http://www.w3.org/1999/xlink" width="32px" height="32px" viewBox="0 0 32 32" version="1.1">
<g id="surface1">
<path style=" stroke:none;fill-rule:nonzero;fill:rgb(0%,0%,0%);fill-opacity:1;" d="M 16.003906 1.269531 C 7.886719 1.269531 1.28125 7.875 1.28125 15.996094 C 1.28125 24.113281 7.886719 30.71875 16.003906 30.71875 C 24.125 30.71875 30.730469 24.113281 30.730469 15.996094 C 30.730469 7.875 24.125 1.269531 16.003906 1.269531 Z M 22.238281 22.613281 C 22.054688 22.890625 21.75 23.039062 21.4375 23.039062 C 21.253906 23.039062 21.070312 22.988281 20.90625 22.878906 C 19.324219 21.824219 16.640625 21.121094 14.398438 21.121094 C 12.023438 21.121094 10.242188 21.707031 10.222656 21.710938 C 9.722656 21.882812 9.175781 21.609375 9.007812 21.105469 C 8.839844 20.601562 9.113281 20.058594 9.617188 19.890625 C 9.699219 19.863281 11.714844 19.203125 14.398438 19.203125 C 16.640625 19.199219 19.753906 19.804688 21.972656 21.28125 C 22.414062 21.578125 22.53125 22.171875 22.238281 22.613281 Z M 24.152344 18.683594 C 23.945312 19.019531 23.585938 19.203125 23.21875 19.203125 C 23.019531 19.203125 22.820312 19.148438 22.640625 19.035156 C 19.769531 17.246094 16.820312 16.867188 14.28125 16.890625 C 11.410156 16.917969 9.117188 17.464844 9.078125 17.476562 C 8.5 17.640625 7.886719 17.300781 7.722656 16.71875 C 7.554688 16.132812 7.894531 15.527344 8.480469 15.359375 C 8.65625 15.3125 10.945312 14.746094 14.082031 14.722656 C 16.9375 14.699219 20.5 15.113281 23.804688 17.167969 C 24.316406 17.488281 24.476562 18.167969 24.152344 18.683594 Z M 26.0625 14.089844 C 25.824219 14.492188 25.398438 14.71875 24.957031 14.71875 C 24.738281 14.71875 24.515625 14.664062 24.3125 14.542969 C 20.96875 12.582031 16.902344 12.164062 14.078125 12.160156 C 14.066406 12.160156 14.050781 12.160156 14.039062 12.160156 C 10.625 12.160156 7.996094 12.761719 7.96875 12.765625 C 7.28125 12.925781 6.59375 12.5 6.433594 11.808594 C 6.273438 11.121094 6.699219 10.433594 7.386719 10.273438 C 7.507812 10.246094 10.316406 9.601562 14.039062 9.601562 C 14.050781 9.601562 14.066406 9.601562 14.082031 9.601562 C 17.222656 9.605469 21.769531 10.082031 25.609375 12.335938 C 26.21875 12.695312 26.421875 13.480469 26.0625 14.089844 Z M 26.0625 14.089844 "/>
</g>
</svg>
